<svg width="500" height="500" xmlns="http://www.w3.org/2000/svg">

 <g>
  <title>background</title>
  <rect fill="none" id="canvas_background" height="402" width="582" y="-1" x="-1"/>
 </g>
 <g>
  <title>Layer 1</title>
  <path fill="#ffffff" id="svg_4" d="m384.6,309.8l-84.2,0l0,-8.3l84.2,0c3.5,0 7,-4.1 7,-8.3l0,-129.8c0,-3.9 -3.2,-7 -7,-7l-168.5,0c-3.9,0 -7,3.2 -7,7l0,30.3l-8.3,0l0,-30.3c0,-8.4 6.9,-15.3 15.3,-15.3l168.5,0c8.4,0 15.3,6.9 15.3,15.3l0,129.8c0,8.8 -7.2,16.6 -15.3,16.6z" class="st0"/>
  <rect fill="#ffffff" id="svg_5" y="177.1" x="204.9" width="190.8" height="8.3" class="st0"/>
  <path fill="#ffffff" id="svg_7" d="m276.7,363.7l-168.5,0c-8.2,0 -15.3,-7.8 -15.3,-16.6l0,-129.8c0,-8.4 6.9,-15.3 15.3,-15.3l168.5,0c8.4,0 15.3,6.9 15.3,15.3l0,129.8c0,8.8 -7.1,16.6 -15.3,16.6zm-168.5,-153.4c-3.9,0 -7,3.2 -7,7l0,129.8c0,4.2 3.5,8.3 7,8.3l168.5,0c3.5,0 7,-4.1 7,-8.3l0,-129.8c0,-3.9 -3.2,-7 -7,-7l-168.5,0z" class="st0"/>
  <rect fill="#ffffff" id="svg_8" y="231" x="97.1" width="190.8" height="8.3" class="st0"/>
  <path fill="#52b2e9" id="svg_11" d="m175.9,189.6l-8.3,0l0,-99.6c0,-2.3 1.9,-4.1 4.1,-4.1l141.1,0c2.3,0 4.1,1.9 4.1,4.1l0,16.6l-8.3,0l0,-12.4l-132.7,0l0,95.4z" class="st1"/>
  <path fill="#52b2e9" id="svg_12" d="m312.8,131.5c-1.5,0 -2.8,-0.8 -3.6,-2l-12.4,-20.7c-0.8,-1.3 -0.8,-2.9 -0.1,-4.2s2.1,-2.1 3.6,-2.1l24.9,0c1.5,0 2.9,0.8 3.6,2.1s0.7,2.9 -0.1,4.2l-12.4,20.7c-0.7,1.2 -2.1,2 -3.5,2zm-5.1,-20.7l5.1,8.5l5.1,-8.5l-10.2,0z" class="st1"/>
  <path fill="#52b2e9" id="svg_14" d="m312.8,425.9l-141.1,0c-2.3,0 -4.1,-1.9 -4.1,-4.1l0,-16.6l8.3,0l0,12.4l132.8,0l0,-95.4l8.3,0l0,99.5c-0.1,2.3 -1.9,4.2 -4.2,4.2z" class="st1"/>
  <path fill="#52b2e9" id="svg_15" d="m184.2,409.3l-24.9,0c-1.5,0 -2.9,-0.8 -3.6,-2.1c-0.7,-1.3 -0.7,-2.9 0.1,-4.2l12.4,-20.7c1.5,-2.5 5.6,-2.5 7.1,0l12.4,20.7c0.8,1.3 0.8,2.9 0.1,4.2c-0.8,1.3 -2.1,2.1 -3.6,2.1zm-17.6,-8.3l10.2,0l-5.1,-8.5l-5.1,8.5z" class="st1"/>
  <rect fill="#ffffff" id="svg_16" y="255.9" x="117.8" width="33.2" height="8.3" class="st0"/>
  <rect fill="#ffffff" id="svg_17" y="293.2" x="234" width="33.2" height="8.3" class="st0"/>
  <rect fill="#ffffff" id="svg_18" y="255.9" x="180" width="87.1" height="8.3" class="st0"/>
  <rect fill="#ffffff" id="svg_19" y="293.2" x="117.8" width="87.1" height="8.3" class="st0"/>
  <rect fill="#ffffff" id="svg_20" y="330.5" x="117.8" width="58.1" height="8.3" class="st0"/>
  <rect fill="#ffffff" id="svg_21" y="330.5" x="209.1" width="58.1" height="8.3" class="st0"/>
 </g>
</svg>