<svg width="499.99999999999994" height="499.99999999999994" xmlns="http://www.w3.org/2000/svg">

 <g>
  <title>background</title>
  <rect fill="none" id="canvas_background" height="402" width="582" y="-1" x="-1"/>
 </g>
 <g>
  <title>Layer 1</title>
  <path fill="#767676" id="svg_3" d="m157.9,292.4l-59.9,-39.1l1.7,-3.3c16.3,-32.2 42.8,-58.8 74.8,-75.2l4.2,-2.1l23.7,67.3l-2.9,1.8c-17.6,10.7 -31.7,27.1 -39.8,46.1l-1.8,4.5zm-49.1,-42l45.4,29.6c8.6,-17.8 21.7,-32.8 38.2,-43.6l-18.3,-52c-27.5,15.1 -50.4,38.3 -65.3,66z" class="st0"/>
  <path fill="#767676" id="svg_4" d="m289.1,234.6l-3.9,-1.4c-21.6,-7.9 -45.8,-7.9 -67.5,-0.1l-3.9,1.4l-23.6,-66.8l3.9,-1.4c36.9,-13.2 77.9,-13.2 114.7,0.1l3.9,1.4l-23.6,66.8zm-37.8,-15.7c11.2,0 22.2,1.7 32.8,5.1l18,-51.1c-32.6,-10.8 -68.6,-10.9 -101.3,-0.1l18,51.1c10.5,-3.3 21.4,-5 32.5,-5z" class="st0"/>
  <path fill="#767676" id="svg_5" d="m345,293.1l-1.9,-4.6c-1,-2.3 -2,-4.6 -3.2,-6.9l7.4,-3.8c0.5,1 1,1.9 1.4,2.9l45.5,-29.6c-3.9,-7.3 -8.4,-14.4 -13.3,-21.1l6.6,-5c6,8.1 11.3,16.7 15.8,25.7l1.7,3.3l-60,39.1z" class="st0"/>
  <path fill="#767676" id="svg_6" d="m311,247.2c-2.5,-1.9 -5.1,-3.7 -7.7,-5.3l-2.9,-1.8l23.8,-67.4l4.2,2.2c9.6,4.9 18.8,10.8 27.4,17.5l-5.1,6.6c-6.9,-5.4 -14.2,-10.2 -21.9,-14.4l-18.3,52c1.9,1.2 3.7,2.5 5.5,3.9l-5,6.7z" class="st0"/>
  <path fill="#767676" id="svg_7" d="m158.9,364.8l-73.5,0l-0.7,-3.3c-2.3,-11.2 -3.4,-22.7 -3.4,-34.2c0,-19.6 3.3,-39 9.9,-57.4l1.8,-5l61.3,40l-0.5,2.8c-1.3,6.4 -1.9,13 -1.9,19.6c0,10.9 1.8,21.7 5.2,32l1.8,5.5zm-66.7,-8.4l55.3,0c-2.6,-9.5 -4,-19.3 -4,-29.2c0,-6.1 0.5,-12.3 1.6,-18.4l-47.8,-31.2c-5.1,16 -7.7,32.7 -7.7,49.6c0,9.8 0.9,19.6 2.6,29.2z" class="st0"/>
  <path fill="#767676" id="svg_8" d="m417.2,364.8l-73.5,0l1.9,-5.5c3.5,-10.3 5.2,-21.1 5.2,-32c0,-6.2 -0.6,-12.5 -1.8,-18.8l-0.5,-2.8l61.4,-40.1l1.7,5c6.4,18.2 9.6,37.3 9.6,56.6c0,11.5 -1.1,23 -3.4,34.2l-0.6,3.4zm-62.1,-8.4l55.3,0c1.7,-9.6 2.6,-19.4 2.6,-29.2c0,-16.6 -2.5,-33 -7.5,-48.8l-47.9,31.2c1,5.9 1.4,11.8 1.4,17.6c0.1,9.9 -1.2,19.7 -3.9,29.2z" class="st0"/>
  <path fill="#52b2e9" id="svg_9" d="m271.1,364.028912l-6.4,-5.3c41.9,-51.6 115.9,-149.5 128.2,-175.6c-20.3,15.8 -87.1,93.3 -145.7,165.5l-6.4,-5.3c32.3,-39.8 138.9,-169.9 156,-171.4c1.6,-0.1 3.1,0.3 4.2,1.3c4,3.5 8.5,7.4 -50.5,87.4c-28.8,39.4 -63.8,84.2 -79.4,103.4z" class="st1"/>
  <path fill="#52b2e9" id="svg_10" d="m251.3,382.228912c-11.4,0 -20.7,-9.3 -20.7,-20.8c0,-11.5 9.3,-20.8 20.7,-20.8s20.7,9.3 20.7,20.8c0.1,11.5 -9.2,20.8 -20.7,20.8zm0,-33.3c-6.9,0 -12.4,5.6 -12.4,12.5c0,6.9 5.6,12.5 12.4,12.5s12.4,-5.6 12.4,-12.5c0.1,-6.9 -5.5,-12.5 -12.4,-12.5z" class="st1"/>
 </g>
</svg>