<svg width="500" height="500" xmlns="http://www.w3.org/2000/svg">

 <g>
  <title>background</title>
  <rect fill="none" id="canvas_background" height="402" width="582" y="-1" x="-1"/>
 </g>
 <g>
  <title>Layer 1</title>
  <path fill="#52b2e9" id="svg_4" d="m223.6,308.9c-5.6,0 -10,-1.6 -13,-4.9c-5.6,-6.1 -5.2,-16.6 1.2,-29.7c5.9,-12.2 16.3,-25.4 29.3,-37.4c13,-11.9 27.1,-21.2 39.7,-26.1c13.6,-5.2 24.2,-4.8 29.7,1.3c5.6,6.1 5.2,16.6 -1.2,29.7c-5.9,12.2 -16.3,25.4 -29.3,37.4c-13,11.9 -27.1,21.2 -39.7,26.1c-6.3,2.4 -11.9,3.6 -16.7,3.6zm73.9,-95.1c-3.9,0 -8.8,1.1 -14.3,3.2c-11.9,4.6 -25.2,13.4 -37.6,24.8c-12.4,11.4 -22.3,24 -27.8,35.4c-5,10.3 -5.9,18.5 -2.3,22.3c3.6,3.9 11.7,3.7 22.5,-0.4c11.9,-4.6 25.2,-13.4 37.6,-24.8c12.4,-11.4 22.3,-24 27.8,-35.4c5,-10.3 5.9,-18.5 2.3,-22.3c-1.8,-1.8 -4.6,-2.8 -8.2,-2.8z" class="st0"/>
  <path fill="#52b2e9" id="svg_5" d="m297.5,308.9c-4.8,0 -10.4,-1.2 -16.7,-3.6c-12.6,-4.9 -26.7,-14.1 -39.7,-26.1c-13,-12 -23.4,-25.2 -29.3,-37.4c-6.4,-13.1 -6.8,-23.7 -1.2,-29.7c5.6,-6.1 16.1,-6.5 29.7,-1.3c12.6,4.9 26.7,14.1 39.7,26.1c13,11.9 23.4,25.2 29.3,37.4c6.4,13.1 6.8,23.7 1.2,29.7c-3,3.3 -7.4,4.9 -13,4.9zm-73.9,-95.1c-3.6,0 -6.4,0.9 -8.1,2.8c-3.6,3.9 -2.7,12 2.3,22.3c5.6,11.4 15.4,24 27.8,35.4c12.4,11.4 25.8,20.2 37.6,24.8c10.7,4.1 18.9,4.3 22.5,0.4c3.6,-3.9 2.7,-12 -2.3,-22.3c-5.6,-11.4 -15.4,-24 -27.8,-35.4c-12.4,-11.4 -25.8,-20.2 -37.6,-24.8c-5.7,-2.1 -10.5,-3.2 -14.4,-3.2z" class="st0"/>
  <path fill="#52b2e9" id="svg_6" d="m260.5,271.2c-7.7,0 -13.9,-6.2 -13.9,-13.9c0,-7.7 6.2,-13.9 13.9,-13.9c7.7,0 13.9,6.2 13.9,13.9c0,7.7 -6.2,13.9 -13.9,13.9zm0,-21.1c-4,0 -7.3,3.3 -7.3,7.3c0,4 3.3,7.3 7.3,7.3c4,0 7.3,-3.3 7.3,-7.3c0,-4.1 -3.3,-7.3 -7.3,-7.3z" class="st0"/>
  <path fill="#767676" id="svg_9" d="m302,375l-82.9,0c-1.8,0 -3.3,-1.5 -3.3,-3.3l0,-30.2c-0.6,-0.8 -2.6,-3.1 -7.7,-6.6c-23.8,-16.4 -38,-44 -38,-73.8c0,-49.9 40.6,-90.5 90.5,-90.5c49.9,0 90.5,40.6 90.5,90.5c0,30.7 -14.9,59.2 -38.8,74.3c-7.6,4.8 -7,13.4 -7,13.5l0,22.7c0,1.9 -1.5,3.4 -3.3,3.4zm-79.6,-6.6l76.3,0l0,-19.1c0,-0.2 -0.9,-12.5 10.1,-19.4c22,-13.9 35.7,-40.3 35.7,-68.7c0,-46.3 -37.6,-83.9 -83.9,-83.9c-46.3,0 -83.9,37.6 -83.9,83.9c0,27.6 13.1,53.1 35.2,68.3c8.2,5.7 10,9 10.3,9.9c0.2,0.4 0.2,0.8 0.2,1.2l0,27.8z" class="st1"/>
  <path fill="#767676" id="svg_10" d="m301.1,399.4l-82.1,0c-1.8,0 -3.3,-1.5 -3.3,-3.3s1.5,-3.3 3.3,-3.3l82.1,0c1.8,0 3.3,1.5 3.3,3.3s-1.5,3.3 -3.3,3.3z" class="st1"/>
  <path fill="#767676" id="svg_11" d="m285.9,423.7l-51.7,0c-1.8,0 -3.3,-1.5 -3.3,-3.3s1.5,-3.3 3.3,-3.3l51.7,0c1.8,0 3.3,1.5 3.3,3.3s-1.5,3.3 -3.3,3.3z" class="st1"/>
  <path fill="#767676" id="svg_13" d="m258.4,150.3c-1.8,0 -3.3,-1.5 -3.3,-3.3l0,-53.9c0,-1.8 1.5,-3.3 3.3,-3.3s3.3,1.5 3.3,3.3l0,53.9c0,1.8 -1.5,3.3 -3.3,3.3z" class="st1"/>
  <path fill="#767676" id="svg_14" d="m169.8,180.7c-0.8,0 -1.7,-0.3 -2.3,-1l-38.1,-38.1c-1.3,-1.3 -1.3,-3.4 0,-4.7c1.3,-1.3 3.4,-1.3 4.7,0l38.1,38.1c1.3,1.3 1.3,3.4 0,4.7c-0.7,0.7 -1.5,1 -2.4,1z" class="st1"/>
  <path fill="#767676" id="svg_15" d="m351.2,180.7c-0.9,0 -1.7,-0.3 -2.3,-1c-1.3,-1.3 -1.3,-3.4 0,-4.7l38.1,-38.1c1.3,-1.3 3.4,-1.3 4.7,0c1.3,1.3 1.3,3.4 0,4.7l-38.1,38.1c-0.7,0.7 -1.6,1 -2.4,1z" class="st1"/>
 </g>
</svg>