<svg width="500" height="500" xmlns="http://www.w3.org/2000/svg">

 <g>
  <title>background</title>
  <rect fill="none" id="canvas_background" height="402" width="582" y="-1" x="-1"/>
 </g>
 <g>
  <title>Layer 1</title>
  <path fill="#ffffff" id="svg_4" d="m373.5,406.1l-225.2,0c-1.7,0 -3.1,-1.4 -3.1,-3.1l0,-290.7c0,-1.7 1.4,-3.1 3.1,-3.1l163.7,0c0.8,0 1.6,0.3 2.2,0.9l61.4,61.4c0.6,0.6 0.9,1.4 0.9,2.2l0,229.3c0,1.7 -1.4,3.1 -3,3.1zm-222.2,-6.2l219,0l0,-224.9l-59.6,-59.6l-159.4,0l0,284.5z" class="st0"/>
  <path fill="#52b2e9" id="svg_6" d="m184.8,189.1c-6.7,0 -12.9,-4.5 -14.8,-11.2l0,0c-2.3,-8.2 2.5,-16.6 10.7,-18.9c3.9,-1.1 8.1,-0.6 11.7,1.4c3.6,2 6.1,5.3 7.2,9.3c1.1,3.9 0.6,8.1 -1.4,11.7c-2,3.6 -5.3,6.1 -9.3,7.2c-1.4,0.3 -2.8,0.5 -4.1,0.5zm-8.9,-12.9c0.7,2.4 2.2,4.3 4.3,5.5c2.1,1.2 4.6,1.5 7,0.8c2.4,-0.7 4.3,-2.2 5.5,-4.3c1.2,-2.1 1.5,-4.6 0.8,-7c-0.7,-2.4 -2.2,-4.3 -4.3,-5.5c-2.1,-1.2 -4.6,-1.5 -7,-0.8c-4.8,1.3 -7.7,6.4 -6.3,11.3l0,0z" class="st1"/>
  <path fill="#52b2e9" id="svg_7" d="m283.4,175.3l-61.4,0c-1.7,0 -3.1,-1.4 -3.1,-3.1c0,-1.7 1.4,-3.1 3.1,-3.1l61.4,0c1.7,0 3.1,1.4 3.1,3.1c-0.1,1.7 -1.4,3.1 -3.1,3.1z" class="st1"/>
  <path fill="#52b2e9" id="svg_9" d="m184.8,238.2c-6.7,0 -12.9,-4.5 -14.8,-11.2l0,0c-2.3,-8.2 2.5,-16.6 10.7,-18.9c3.9,-1.1 8.1,-0.6 11.7,1.4c3.6,2 6.1,5.3 7.2,9.3c1.1,3.9 0.6,8.1 -1.4,11.7c-2,3.6 -5.3,6.1 -9.3,7.2c-1.4,0.3 -2.8,0.5 -4.1,0.5zm-8.9,-12.9c0.7,2.4 2.2,4.3 4.3,5.5c2.1,1.2 4.6,1.5 7,0.8c2.4,-0.7 4.3,-2.2 5.5,-4.3c1.2,-2.1 1.5,-4.6 0.8,-7c-0.7,-2.4 -2.2,-4.3 -4.3,-5.5c-2.1,-1.2 -4.6,-1.5 -7,-0.8c-4.8,1.3 -7.7,6.4 -6.3,11.3l0,0z" class="st1"/>
  <path fill="#52b2e9" id="svg_10" d="m344.8,225.9l-122.8,0c-1.7,0 -3.1,-1.4 -3.1,-3.1s1.4,-3.1 3.1,-3.1l122.8,0c1.7,0 3.1,1.4 3.1,3.1s-1.4,3.1 -3.1,3.1z" class="st1"/>
  <path fill="#52b2e9" id="svg_11" d="m344.8,303.7l-167.9,0c-1.7,0 -3.1,-1.4 -3.1,-3.1l0,-36.8c0,-1.7 1.4,-3.1 3.1,-3.1l167.9,0c1.7,0 3.1,1.4 3.1,3.1l0,36.8c0,1.7 -1.4,3.1 -3.1,3.1zm-164.8,-6.1l161.7,0l0,-30.7l-161.7,0l0,30.7z" class="st1"/>
  <path fill="#52b2e9" id="svg_12" d="m344.8,340.6l-167.9,0c-1.7,0 -3.1,-1.4 -3.1,-3.1l0,-36.8c0,-1.7 1.4,-3.1 3.1,-3.1l167.9,0c1.7,0 3.1,1.4 3.1,3.1l0,36.8c0,1.7 -1.4,3.1 -3.1,3.1zm-164.8,-6.2l161.7,0l0,-30.7l-161.7,0l0,30.7z" class="st1"/>
  <path fill="#52b2e9" id="svg_13" d="m344.8,377.4l-167.9,0c-1.7,0 -3.1,-1.4 -3.1,-3.1l0,-36.8c0,-1.7 1.4,-3.1 3.1,-3.1l167.9,0c1.7,0 3.1,1.4 3.1,3.1l0,36.8c0,1.7 -1.4,3.1 -3.1,3.1zm-164.8,-6.1l161.7,0l0,-30.7l-161.7,0l0,30.7z" class="st1"/>
  <path fill="#ffffff" id="svg_14" d="m373.5,176.8l-61.5,0c-1.7,0 -3.1,-1.4 -3.1,-3.1l0,-61.4c0,-1.2 0.7,-2.4 1.9,-2.8c1.2,-0.5 2.5,-0.2 3.3,0.7l61.4,61.4c0.9,0.9 1.1,2.2 0.7,3.3c-0.4,1.1 -1.5,1.9 -2.7,1.9zm-58.4,-6.1l50.9,0l-50.9,-50.9l0,50.9z" class="st0"/>
  <path fill="#ffffff" id="svg_17" d="m419,349.5c-0.7,0 -1.4,-0.2 -2,-0.7c-4.7,-4.1 -10.6,-10.6 -12,-18.6c0,-0.1 -0.1,-0.5 -0.2,-1c-0.6,-2.6 -1.8,-8 -1.8,-11.1l0,-32.7l-4,-26.1c-0.1,-0.9 -0.4,-1.3 -0.4,-1.3l-15.2,-23.6c-1.8,0.7 -4.5,2.2 -5.8,5.4c-1.7,4 -1.7,11.8 8,26.5c2,3.6 0.2,19 -1.6,31.4c-0.2,1.7 -1.8,2.8 -3.5,2.6c-1.7,-0.2 -2.8,-1.8 -2.6,-3.5c1.7,-11.2 3,-24.7 2.4,-27.4c-8.9,-13.5 -11.7,-24.3 -8.3,-32.1c3.5,-7.9 11.9,-9.4 12.3,-9.4c1.2,-0.2 2.4,0.3 3.1,1.4l16.4,25.4c0.1,0.1 1,1.3 1.4,3.8l4,26.4c0,0.2 0,0.3 0,0.5l0,32.9c0,2.4 1.2,7.7 1.7,9.7c0.2,0.7 0.3,1.2 0.3,1.3c1,6.2 5.9,11.6 9.9,14.9c1.3,1.1 1.4,3 0.3,4.3c-0.7,0.7 -1.6,1 -2.4,1z" class="st0"/>
  <path fill="#ffffff" id="svg_19" d="m375.7,392.9c-0.8,0 -1.6,-0.3 -2.2,-0.9c-1.2,-1.2 -1.2,-3.2 0,-4.3l48.5,-47.7c1.2,-1.2 3.1,-1.2 4.3,0l19.8,19.6c1.2,1.2 1.2,3.1 0,4.3c-1.2,1.2 -3.1,1.2 -4.3,0l-17.6,-17.5l-46.3,45.6c-0.6,0.6 -1.4,0.9 -2.2,0.9z" class="st0"/>
  <path fill="#ffffff" id="svg_20" d="m398.5,420.9c-0.8,0 -1.6,-0.3 -2.2,-1l-23.1,-24.7c-1.2,-1.2 -1.1,-3.2 0.1,-4.3c1.2,-1.2 3.2,-1.1 4.3,0.1l23.1,24.7c1.2,1.2 1.1,3.2 -0.1,4.3c-0.6,0.6 -1.4,0.9 -2.1,0.9z" class="st0"/>
  <path fill="#ffffff" id="svg_22" d="m103.428912,349.5c-0.9,0 -1.7,-0.4 -2.3,-1.1c-1.1,-1.3 -1,-3.2 0.3,-4.3c4,-3.4 8.9,-8.7 9.9,-14.9c0,-0.2 0.1,-0.7 0.3,-1.4c0.5,-2 1.7,-7.3 1.7,-9.7l0,-33c0,-0.2 0,-0.3 0,-0.5l4,-26.4c0.4,-2.5 1.3,-3.8 1.6,-4.2l16.2,-25.1c0.7,-1 1.9,-1.6 3.1,-1.4c0.4,0.1 8.8,1.5 12.3,9.4c3.4,7.8 0.6,18.6 -8.3,32.1c-0.6,2.7 0.7,16.2 2.4,27.4c0.2,1.7 -0.9,3.2 -2.6,3.5c-1.7,0.2 -3.2,-0.9 -3.5,-2.6c-1.8,-12.4 -3.6,-27.9 -1.7,-31.2c9.9,-14.9 9.8,-22.7 8.1,-26.7c-1.3,-3 -4,-4.6 -5.8,-5.3l-15.3,23.7c-0.1,0.1 -0.3,0.5 -0.5,1.5l-4,26.1l0,32.7c0,3.1 -1.2,8.5 -1.8,11.1c-0.1,0.5 -0.2,0.9 -0.2,1c-1.3,8 -7.2,14.6 -12,18.6c-0.5,0.5 -1.2,0.7 -1.9,0.7z" class="st0"/>
  <path fill="#ffffff" id="svg_24" d="m145.8,392.9c-0.8,0 -1.6,-0.3 -2.2,-0.9l-46.3,-45.6l-17.6,17.5c-1.2,1.2 -3.1,1.2 -4.3,0c-1.2,-1.2 -1.2,-3.2 0,-4.3l19.8,-19.6c1.2,-1.2 3.1,-1.2 4.3,0l48.5,47.7c1.2,1.2 1.2,3.1 0,4.3c-0.6,0.5 -1.4,0.9 -2.2,0.9z" class="st0"/>
  <path fill="#ffffff" id="svg_25" d="m123.1,420.9c-0.8,0 -1.5,-0.3 -2.1,-0.8c-1.2,-1.2 -1.3,-3.1 -0.1,-4.3l23.1,-24.7c1.2,-1.2 3.1,-1.3 4.3,-0.1c1.2,1.2 1.3,3.1 0.1,4.3l-23.1,24.7c-0.6,0.6 -1.4,0.9 -2.2,0.9z" class="st0"/>
  <path fill="#ffffff" id="svg_26" d="m373.5,406.1c-1.7,0 -3.1,-1.4 -3.1,-3.1l0,-77.8c0,-1.7 1.4,-3.1 3.1,-3.1s3.1,1.4 3.1,3.1l0,77.8c-0.1,1.7 -1.5,3.1 -3.1,3.1z" class="st0"/>
  <path fill="#ffffff" id="svg_27" d="m148.3,406.1c-1.7,0 -3.1,-1.4 -3.1,-3.1l0,-77.8c0,-1.7 1.4,-3.1 3.1,-3.1s3.1,1.4 3.1,3.1l0,77.8c-0.1,1.7 -1.4,3.1 -3.1,3.1z" class="st0"/>
 </g>
</svg>