<svg width="500" height="500" xmlns="http://www.w3.org/2000/svg">

 <g>
  <title>background</title>
  <rect fill="none" id="canvas_background" height="402" width="582" y="-1" x="-1"/>
 </g>
 <g>
  <title>Layer 1</title>
  <path fill="#ffffff" id="svg_3" d="m270.8,407c-1.3,0 -2.5,-0.8 -3,-2l-7,-17.2c-8.3,1.6 -16.9,1.4 -25.2,-0.4l-7.6,17c-0.7,1.6 -2.6,2.3 -4.2,1.6l-17.3,-7.7c-0.8,-0.3 -1.4,-1 -1.7,-1.8c-0.3,-0.8 -0.3,-1.7 0.1,-2.5l7.6,-17c-6.9,-4.9 -12.7,-11.3 -17.2,-18.5l-17.5,6.3c-1.7,0.6 -3.5,-0.3 -4.1,-1.9l-6.4,-17.9c-0.3,-0.8 -0.2,-1.7 0.1,-2.5c0.4,-0.8 1,-1.4 1.8,-1.7l17.5,-6.3c-1.1,-7.5 -0.8,-15.2 0.8,-22.7l-17,-7.6c-1.6,-0.7 -2.3,-2.6 -1.6,-4.2l7.7,-17.3c0.3,-0.8 1,-1.4 1.8,-1.7c0.8,-0.3 1.7,-0.3 2.5,0.1l17,7.6c4.4,-6.2 9.9,-11.5 16.3,-15.8l-7,-17.3c-0.3,-0.8 -0.3,-1.7 0,-2.5c0.3,-0.8 1,-1.4 1.8,-1.7l17.6,-7.1c1.6,-0.7 3.5,0.1 4.2,1.8l7,17.2c8.3,-1.6 16.9,-1.4 25.2,0.4l7.6,-17c0.7,-1.6 2.6,-2.3 4.2,-1.6l17.3,7.7c0.8,0.3 1.4,1 1.7,1.8c0.3,0.8 0.3,1.7 -0.1,2.5l-7.6,17c6.9,4.9 12.7,11.2 17.1,18.5l17.5,-6.3c1.7,-0.6 3.5,0.3 4.1,1.9l6.4,17.8c0.3,0.8 0.3,1.7 -0.1,2.5c-0.4,0.8 -1,1.4 -1.8,1.7l-17.5,6.3c1.1,7.5 0.8,15.2 -0.8,22.7l17,7.6c0.8,0.3 1.4,1 1.7,1.8c0.3,0.8 0.3,1.7 -0.1,2.5l-7.8,17.3c-0.7,1.6 -2.6,2.3 -4.2,1.6l-17,-7.6c-4.4,6.2 -10,11.6 -16.3,15.8l7,17.3c0.3,0.8 0.3,1.7 0,2.5c-0.3,0.8 -1,1.4 -1.7,1.7l-17.6,7.1c-0.3,0.1 -0.8,0.2 -1.2,0.2zm-8,-26.2c1.3,0 2.5,0.8 3,2l6.8,16.8l11.6,-4.7l-6.8,-16.8c-0.6,-1.5 0,-3.1 1.3,-4c7.2,-4.4 13.5,-10.4 18.1,-17.5c0.9,-1.3 2.6,-1.8 4,-1.2l16.5,7.4l5.1,-11.5l-16.4,-7.3c-1.4,-0.6 -2.2,-2.2 -1.8,-3.8c2.2,-8.2 2.5,-16.9 0.9,-25.2c-0.3,-1.6 0.6,-3.1 2.1,-3.6l17,-6.1l-4.3,-11.8l-17,6.1c-1.5,0.5 -3.1,-0.1 -3.9,-1.5c-4.5,-8.2 -10.9,-15.1 -18.7,-20.1c-1.3,-0.9 -1.8,-2.6 -1.2,-4l7.4,-16.5l-11.4,-5.1l-7.4,16.5c-0.6,1.4 -2.2,2.2 -3.8,1.8c-9,-2.4 -18.5,-2.6 -27.5,-0.5c-1.5,0.4 -3.1,-0.5 -3.7,-1.9l-6.8,-16.8l-11.6,4.7l6.8,16.8c0.6,1.5 0,3.1 -1.3,4c-7.4,4.5 -13.5,10.4 -18.2,17.5c-0.9,1.3 -2.6,1.8 -4,1.2l-16.5,-7.4l-5.1,11.5l16.5,7.4c1.4,0.6 2.2,2.2 1.8,3.8c-2.2,8.2 -2.5,16.9 -0.9,25.2c0.3,1.6 -0.6,3.1 -2.1,3.6l-17,6.1l4.3,11.8l17,-6.1c1.5,-0.5 3.1,0.1 3.9,1.5c4.5,8.1 11,15.1 18.7,20.2c1.3,0.9 1.8,2.6 1.2,4l-7.4,16.5l11.4,5.1l7.4,-16.5c0.6,-1.4 2.2,-2.2 3.8,-1.8c9,2.4 18.5,2.6 27.5,0.5c0.3,-0.2 0.5,-0.3 0.7,-0.3z" class="st0"/>
  <path fill="#ffffff" id="svg_4" d="m249.3,352.9c-15.1,0 -27.4,-12.3 -27.4,-27.4s12.3,-27.4 27.4,-27.4s27.4,12.3 27.4,27.4s-12.3,27.4 -27.4,27.4zm0,-48.3c-11.6,0 -21,9.4 -21,21c0,11.6 9.4,21 21,21c11.6,0 21,-9.4 21,-21c0,-11.6 -9.4,-21 -21,-21z" class="st0"/>
  <path fill="#52b2e9" id="svg_6" d="m279.1,231.2c-1.8,0 -3.2,-1.4 -3.2,-3.2l0,-59.9c0,-1.8 1.4,-3.2 3.2,-3.2s3.2,1.4 3.2,3.2l0,59.9c0,1.8 -1.4,3.2 -3.2,3.2z" class="st1"/>
  <path fill="#52b2e9" id="svg_7" d="m219.2,231.2c-1.8,0 -3.2,-1.4 -3.2,-3.2l0,-59.9c0,-1.8 1.4,-3.2 3.2,-3.2s3.2,1.4 3.2,3.2l0,59.9c0,1.8 -1.5,3.2 -3.2,3.2z" class="st1"/>
  <path fill="#52b2e9" id="svg_8" d="m279.1,167c-8.9,0 -16.1,-7.2 -16.1,-16.1s7.2,-16.1 16.1,-16.1c8.9,0 16.1,7.2 16.1,16.1s-7.2,16.1 -16.1,16.1zm0,-25.7c-5.3,0 -9.6,4.3 -9.6,9.6c0,5.3 4.3,9.6 9.6,9.6c5.3,0 9.6,-4.3 9.6,-9.6c0.1,-5.3 -4.3,-9.6 -9.6,-9.6z" class="st1"/>
  <path fill="#52b2e9" id="svg_10" d="m313.4,274.1c-1.8,0 -3.2,-1.4 -3.2,-3.2l0,-85.6c0,-1.8 1.4,-3.2 3.2,-3.2l51.4,0c1.8,0 3.2,1.4 3.2,3.2s-1.4,3.2 -3.2,3.2l-48.2,0l0,82.4c0,1.7 -1.5,3.2 -3.2,3.2z" class="st1"/>
  <path fill="#52b2e9" id="svg_11" d="m340.7,328.1c-1.1,0 -2.2,-0.6 -2.8,-1.7c-0.8,-1.6 -0.3,-3.5 1.3,-4.4l26.7,-14.6l0,-70.9c0,-1.8 1.4,-3.2 3.2,-3.2l30,0c1.8,0 3.2,1.4 3.2,3.2s-1.4,3.2 -3.2,3.2l-26.8,0l0,69.6c0,1.2 -0.6,2.3 -1.7,2.8l-28.4,15.5c-0.5,0.4 -1,0.5 -1.5,0.5z" class="st1"/>
  <path fill="#52b2e9" id="svg_12" d="m377.6,201.3c-8.9,0 -16.1,-7.2 -16.1,-16.1c0,-8.9 7.2,-16.1 16.1,-16.1c8.9,0 16.1,7.2 16.1,16.1c0,8.9 -7.2,16.1 -16.1,16.1zm0,-25.7c-5.3,0 -9.6,4.3 -9.6,9.6c0,5.3 4.3,9.6 9.6,9.6s9.6,-4.3 9.6,-9.6c0,-5.3 -4.3,-9.6 -9.6,-9.6z" class="st1"/>
  <path fill="#52b2e9" id="svg_13" d="m411.9,252.6c-8.9,0 -16.1,-7.2 -16.1,-16.1s7.2,-16.1 16.1,-16.1c8.9,0 16.1,7.2 16.1,16.1s-7.3,16.1 -16.1,16.1zm0,-25.6c-5.3,0 -9.6,4.3 -9.6,9.6c0,5.3 4.3,9.6 9.6,9.6s9.6,-4.3 9.6,-9.6c0,-5.3 -4.3,-9.6 -9.6,-9.6z" class="st1"/>
  <path fill="#52b2e9" id="svg_15" d="m189.2,274.1c-1.8,0 -3.2,-1.4 -3.2,-3.2l0,-82.4l-48.2,0c-1.8,0 -3.2,-1.4 -3.2,-3.2s1.4,-3.2 3.2,-3.2l51.4,0c1.8,0 3.2,1.4 3.2,3.2l0,85.6c0,1.7 -1.4,3.2 -3.2,3.2z" class="st1"/>
  <path fill="#52b2e9" id="svg_16" d="m161.9,328.1c-0.5,0 -1,-0.1 -1.5,-0.4l-28.4,-15.5c-1,-0.6 -1.7,-1.6 -1.7,-2.8l0,-69.6l-26.8,0c-1.8,0 -3.2,-1.4 -3.2,-3.2s1.4,-3.2 3.2,-3.2l30,0c1.8,0 3.2,1.4 3.2,3.2l0,70.9l26.7,14.6c1.6,0.9 2.1,2.8 1.3,4.4c-0.6,1 -1.7,1.6 -2.8,1.6z" class="st1"/>
  <path fill="#52b2e9" id="svg_17" d="m125,201.3c-8.9,0 -16.1,-7.2 -16.1,-16.1c0,-8.9 7.2,-16.1 16.1,-16.1s16.1,7.2 16.1,16.1c-0.1,8.9 -7.3,16.1 -16.1,16.1zm0,-25.7c-5.3,0 -9.6,4.3 -9.6,9.6c0,5.3 4.3,9.6 9.6,9.6c5.3,0 9.6,-4.3 9.6,-9.6c0,-5.3 -4.3,-9.6 -9.6,-9.6z" class="st1"/>
  <path fill="#52b2e9" id="svg_18" d="m90.7,252.6c-8.9,0 -16.1,-7.2 -16.1,-16.1s7.2,-16.1 16.1,-16.1s16.1,7.2 16.1,16.1s-7.2,16.1 -16.1,16.1zm0,-25.6c-5.3,0 -9.6,4.3 -9.6,9.6c0,5.3 4.3,9.6 9.6,9.6s9.6,-4.3 9.6,-9.6c0.1,-5.3 -4.3,-9.6 -9.6,-9.6z" class="st1"/>
  <path fill="#52b2e9" id="svg_19" d="m219.2,167c-8.9,0 -16.1,-7.2 -16.1,-16.1s7.2,-16.1 16.1,-16.1c8.9,0 16.1,7.2 16.1,16.1s-7.3,16.1 -16.1,16.1zm0,-25.7c-5.3,0 -9.6,4.3 -9.6,9.6c0,5.3 4.3,9.6 9.6,9.6c5.3,0 9.6,-4.3 9.6,-9.6c0,-5.3 -4.3,-9.6 -9.6,-9.6z" class="st1"/>
 </g>
</svg>