<svg width="499.99999999999994" height="499.99999999999994" xmlns="http://www.w3.org/2000/svg">

 <g>
  <title>background</title>
  <rect fill="none" id="canvas_background" height="402" width="582" y="-1" x="-1"/>
 </g>
 <g>
  <title>Layer 1</title>
  <path fill="#767676" id="svg_2" d="m322.5,252.2l-32.5,0c-2.3,0 -4.1,-1.8 -4.1,-4.1c0,-2.3 1.8,-4.1 4.1,-4.1l32.5,0c2.3,0 4.1,-1.8 4.1,-4.1l0,-81.8c0,-2.3 -1.8,-4.1 -4.1,-4.1l-139.3,0c-2.3,0 -4.1,1.8 -4.1,4.1l0,81.8c0,2.3 1.8,4.1 4.1,4.1l32,0c2.3,0 4.1,1.8 4.1,4.1c0,2.3 -1.8,4.1 -4.1,4.1l-32,0c-6.8,0 -12.3,-5.5 -12.3,-12.3l0,-81.8c0,-6.8 5.5,-12.3 12.3,-12.3l139.4,0c6.8,0 12.3,5.5 12.3,12.3l0,81.8c-0.1,6.8 -5.6,12.3 -12.4,12.3z" class="st0"/>
  <path fill="#767676" id="svg_4" d="m415.2,288c-0.9,0 -1.8,-0.2 -2.7,-0.6l-78.7,-33.6c-4.7,-2 -7.1,-8.5 -7.1,-13.9l0,-81.8c0,-4.3 1.5,-7.7 4.1,-9.4c1.9,-1.2 4.2,-1.4 6.4,-0.4l78.7,36c4.6,2.1 7,8.5 7,13.8l0,79.6c0,4.2 -1.5,7.6 -4,9.2c-1.2,0.8 -2.5,1.1 -3.7,1.1zm0.4,-8.1l0,0c0,0 0,0 0,0zm-80.6,-123.5c-0.1,0.4 -0.2,1 -0.2,1.7l0,81.8c0,3.3 1.4,6 2.2,6.4l77.4,33c0.1,-0.4 0.2,-1 0.2,-1.7l0,-79.6c0,-3.4 -1.6,-6 -2.3,-6.4l-77.3,-35.2z" class="st0"/>
  <path fill="#767676" id="svg_5" d="m369.4,248.8c-0.6,0 -1.1,-0.1 -1.6,-0.3l-17.2,-7.5c-1.7,-0.8 -2.7,-2.6 -2.4,-4.5l8.6,-49.2c0.3,-2 2,-3.4 4,-3.4c0,0 0,0 0,0c2,0 3.7,1.5 4,3.5l8.6,56.6c0.2,1.5 -0.4,2.9 -1.5,3.9c-0.7,0.6 -1.6,0.9 -2.5,0.9zm-12.6,-14l7.5,3.2l-3.7,-24.6l-3.8,21.4z" class="st0"/>
  <path fill="#767676" id="svg_6" d="m400.8,262.4c-0.6,0 -1.1,-0.1 -1.6,-0.3l-17.3,-7.5c-1.9,-0.8 -2.9,-3 -2.3,-5l8.6,-26.2c0.6,-1.7 2.2,-2.9 4,-2.8c1.8,0.1 3.4,1.3 3.8,3.1l8.6,33.7c0.4,1.5 -0.1,3.1 -1.3,4.1c-0.6,0.6 -1.5,0.9 -2.5,0.9zm-12.2,-13.8l6.1,2.7l-3.1,-12l-3,9.3z" class="st0"/>
  <path fill="#767676" id="svg_7" d="m312.6,218.6c-0.3,0 -0.7,0 -1,-0.1c-0.3,-0.1 -2.1,-0.5 -3.5,-1.2c-2.5,-1.2 -4,-3.7 -5.5,-6.1c-1.3,-2.2 -2.8,-4.6 -4.4,-4.9c-1.6,-0.3 -4.3,1.1 -7.4,3.6c-1.5,1.4 -4.3,1.9 -7.1,1.3c-2.2,-0.5 -6.2,-2.1 -8.4,-7.5c-0.8,-2.2 -2.8,-5.4 -4,-6.3c-0.4,0.3 -1.4,1.3 -3.1,4.4c-1,1.8 -4.6,7.2 -9.8,7.6c-2,0.2 -4.8,-0.3 -7.4,-3.4c-2.5,-2.5 -5.7,-9.1 -9.7,-17.4c-1.1,-2.3 -2.1,-4.4 -2.8,-5.6c-0.7,-1.4 -1.2,-1.8 -1.4,-1.9c0.1,0.1 -0.4,0.5 -1,1.6c-10.9,22.9 -16.7,24.4 -20.9,22.9c-0.6,-0.3 -1.2,-0.5 -1.7,-0.8c-2,-1.1 -2.6,-1.4 -4.6,0.6c-0.3,0.3 -0.9,1.3 -1.3,2c-2.4,3.8 -6.4,10.3 -14.2,11.1c-2.3,0.2 -4.3,-1.4 -4.5,-3.6c-0.2,-2.2 1.4,-4.3 3.7,-4.5c3.5,-0.4 5.7,-3.5 8.1,-7.3c0.9,-1.4 1.6,-2.5 2.4,-3.4c6.1,-6.5 12,-3.4 14.3,-2.1c1.5,-1.2 5.4,-5.8 11.2,-18c0,0 0.2,-0.4 0.2,-0.4c2,-3.9 5,-6.2 8.5,-6.2c0,0 0,0 0.1,0c3.5,0 6.6,2.3 8.5,6.4c0.6,1.2 1.7,3.3 2.8,5.8c2.4,5 6.4,13.4 8.4,15.4c0.6,0.7 0.8,0.7 0.8,0.7c0.5,-0.1 2.2,-1.7 3.2,-3.4c2.3,-4.2 5.3,-8.7 10.4,-8.7c7.3,0.2 11.5,11.5 11.5,11.6c1,2.4 2.5,2.5 3.1,2.5c5.2,-4.1 9.6,-5.7 13.6,-5.1c5.3,0.9 8.1,5.4 10.1,8.7c0.6,1.1 1.6,2.7 2.1,3c0.4,0.2 1.4,0.5 1.9,0.6c2.2,0.6 3.5,2.8 3,5c-0.7,1.8 -2.4,3.1 -4.2,3.1zm-26.9,-15.1c-0.1,0.1 -0.2,0.1 -0.3,0.2c0.1,0 0.2,-0.1 0.3,-0.2z" class="st0"/>
  <path fill="#767676" id="svg_9" d="m90.4,288c-1.3,0 -2.5,-0.4 -3.6,-1.1c-2.5,-1.7 -4,-5 -4,-9.2l0,-79.6c0,-5.3 2.4,-11.7 7,-13.8l78.7,-36c2.1,-1 4.5,-0.8 6.4,0.4c2.6,1.7 4.1,5.1 4.1,9.4l0,81.8c0,5.4 -2.4,11.9 -7.1,13.9l-78.7,33.6c-1,0.4 -1.9,0.6 -2.8,0.6zm-0.5,-8.1c0,0 0,0 0,0l0,0zm80.6,-123.5l-77.3,35.4c-0.7,0.4 -2.2,3 -2.2,6.4l0,79.6c0,0.7 0.1,1.3 0.2,1.7l77.4,-33c0.6,-0.4 2.1,-3 2.1,-6.4l0,-81.8c0,-0.9 -0.1,-1.5 -0.2,-1.9z" class="st0"/>
  <path fill="#767676" id="svg_10" d="m127.3,251.6c-2.4,0 -4.8,-0.7 -7,-2.1c-6,-3.9 -9.5,-12.9 -9.5,-24.1c0,-17.4 8.2,-34.7 18.8,-39.5c2.1,-0.9 4.5,0 5.4,2c0.9,2.1 0,4.5 -2,5.4c-6.7,3 -13.9,16.6 -13.9,32c0,10 3.1,15.5 5.8,17.3c1.4,1 3,1 4.8,0.2c6.7,-2.9 13.9,-16.4 13.9,-32c0,-2.3 1.8,-4.1 4.1,-4.1s4.1,1.8 4.1,4.1c0,17.6 -8.3,34.9 -18.8,39.5c-2,0.9 -3.9,1.3 -5.7,1.3z" class="st0"/>
  <path fill="#767676" id="svg_11" d="m129.8,232.8c-1.3,0 -2.5,-0.4 -3.6,-1.1c-2.6,-1.7 -4.1,-5.2 -4.1,-9.6c0,-5.5 2.5,-12.2 7.3,-14.3c2.1,-0.9 4.5,0 5.4,2.1c0.9,2.1 0,4.5 -2.1,5.4c-0.7,0.4 -2.4,3.2 -2.4,6.8c0,0.5 0,0.9 0.1,1.3c1.2,-1.8 3.6,-2.4 5.5,-1.2c1.9,1.2 2.6,3.7 1.4,5.6c-1.3,2.1 -2.8,3.6 -4.6,4.3c-1,0.5 -1.9,0.7 -2.9,0.7z" class="st0"/>
  <path stroke-width="0" fill="#52b2e9" id="svg_14" d="m201.8,343.4l-7.8,-2.4c0.5,-1.5 1,-3 1.5,-4.4c0.6,-1.5 1.3,-3 2,-4.4c8.4,-16.8 24.5,-26.8 43.2,-26.8l24.6,0c18.6,0 34.8,10 43.2,26.8c0.7,1.4 1.4,2.9 2,4.4c0.6,1.4 1.1,2.9 1.5,4.4l-7.9,2.3c-0.4,-1.3 -0.8,-2.5 -1.3,-3.7c-0.5,-1.3 -1.1,-2.6 -1.7,-3.8c-7.1,-14.2 -20.1,-22.3 -35.8,-22.3l-24.6,0c-15.7,0 -28.8,8.1 -35.8,22.3c-0.6,1.2 -1.2,2.5 -1.7,3.8c-0.6,1.3 -1.1,2.5 -1.4,3.8z" class="st1"/>
  <path stroke-width="0" fill="#52b2e9" id="svg_15" d="m252.9,297.2c-17.2,0 -28.7,-13.2 -28.7,-32.7c0,-19.6 11.5,-32.7 28.7,-32.7c17.2,0 28.7,13.2 28.7,32.7c0,19.6 -11.6,32.7 -28.7,32.7zm0,-57.3c-15.1,0 -20.5,13.2 -20.5,24.6c0,11.3 5.4,24.6 20.5,24.6c15.1,0 20.5,-13.2 20.5,-24.6c0,-11.3 -5.4,-24.6 -20.5,-24.6z" class="st1"/>
  <path fill="#767676" id="svg_16" d="m331.478331,395.5l-8.2,0l0,-25.4c0,-15.4 -12.5,-27.8 -27.9,-27.8l-83.6,0c-15.4,0 -27.9,12.5 -27.9,27.8l0,25.4l-8.1,0l0,-25.4c0,-19.9 16.2,-36 36.1,-36l83.6,0c19.9,0 36.1,16.2 36.1,36l0,25.4l-0.1,0z" class="st0"/>
  <path fill="#767676" id="svg_17" d="m334.8,137.6l-164,0c-2.3,0 -4.1,-1.8 -4.1,-4.1s1.8,-4.1 4.1,-4.1l164,0c2.3,0 4.1,1.8 4.1,4.1s-1.8,4.1 -4.1,4.1z" class="st0"/>
 </g>
</svg>