<svg width="500" height="500" xmlns="http://www.w3.org/2000/svg">

 <g>
  <title>background</title>
  <rect fill="none" id="canvas_background" height="402" width="582" y="-1" x="-1"/>
 </g>
 <g>
  <title>Layer 1</title>
  <path fill="#ffffff" id="svg_2" d="m319.728912,407.4l-231.9,0c-2.9,0 -5.3,-2.4 -5.3,-5.3l0,-295.1c0,-2.9 2.4,-5.3 5.3,-5.3l231.9,0c2.9,0 5.3,2.4 5.3,5.3l0,36.9c0,2.9 -2.4,5.3 -5.3,5.3s-5.3,-2.4 -5.3,-5.3l0,-31.6l-221.3,0l0,284.6l221.4,0l0,-173.9c0,-2.9 2.4,-5.3 5.3,-5.3s5.3,2.4 5.3,5.3l0,179.2c-0.1,2.9 -2.5,5.2 -5.4,5.2z" class="st0"/>
  <path fill="#ffffff" id="svg_3" d="m156.328912,381.1l-42.2,0c-2.9,0 -5.3,-2.4 -5.3,-5.3l0,-73.8c0,-8.7 7.1,-15.8 15.8,-15.8l21.2,0c8.7,0 15.8,7.1 15.8,15.8l0,73.8c0,2.9 -2.4,5.3 -5.3,5.3zm-36.9,-10.6l31.6,0l0,-68.5c0,-2.9 -2.4,-5.3 -5.3,-5.3l-21.1,0c-2.9,0 -5.3,2.4 -5.3,5.3l0,68.5l0.1,0z" class="st0"/>
  <path fill="#ffffff" id="svg_4" d="m224,381.1l-42.2,0c-2.9,0 -5.3,-2.4 -5.3,-5.3l0,-42.2c0,-8.7 7.1,-15.8 15.8,-15.8l21.1,0c8.7,0 15.8,7.1 15.8,15.8l0,42.2c0.1,2.9 -2.3,5.3 -5.2,5.3zm-36.9,-10.6l31.6,0l0,-36.9c0,-2.9 -2.4,-5.3 -5.3,-5.3l-21.1,0c-2.9,0 -5.3,2.4 -5.3,5.3l0,36.9l0.1,0z" class="st0"/>
  <path fill="#ffffff" id="svg_5" d="m292.5,381.1l-42.2,0c-2.9,0 -5.3,-2.4 -5.3,-5.3l0,-110.7c0,-8.7 7.1,-15.8 15.8,-15.8l21.2,0c8.7,0 15.8,7.1 15.8,15.8l0,110.7c0,2.9 -2.3,5.3 -5.3,5.3zm-36.8,-10.6l31.6,0l0,-105.4c0,-2.9 -2.4,-5.3 -5.3,-5.3l-21.1,0c-2.9,0 -5.3,2.4 -5.3,5.3l0,105.4l0.1,0z" class="st0"/>
  <path fill="#52b2e9" id="svg_7" d="m198.028912,273.5c-0.1,0 -0.1,0 -0.2,0c-1.6,-0.1 -3.2,-0.9 -4.1,-2.2l-21,-30l-12.8,12c-1.1,1.1 -2.7,1.6 -4.2,1.4c-1.5,-0.2 -2.9,-1 -3.8,-2.3l-17.9,-26.8l-21.9,17.5c-2.3,1.8 -5.6,1.5 -7.4,-0.8c-1.8,-2.3 -1.5,-5.6 0.8,-7.4l26.4,-21.1c1.2,-0.9 2.7,-1.3 4.1,-1.1c1.5,0.2 2.8,1.1 3.6,2.3l17.6,26.5l12.7,-11.9c1.1,-1 2.6,-1.6 4.1,-1.4c1.5,0.2 2.9,1 3.8,2.2l20.5,29.3l59.3,-71.5c0.9,-1.1 2.3,-1.8 3.8,-1.9c1.5,0 2.9,0.5 4,1.5l22.4,22.4l43.7,-48.6c1,-1.1 2.3,-1.7 4,-1.7c1.5,0 3,0.7 3.9,1.8l27.7,32.3l43.4,-48.2c2,-2.2 5.3,-2.3 7.4,-0.4c2.2,1.9 2.3,5.3 0.4,7.4l-47.4,52.7c-1,1.1 -2.5,1.6 -4,1.7c-1.5,0 -3,-0.7 -3.9,-1.8l-27.6,-32.4l-43.4,48.2c-1,1.1 -2.3,1.7 -3.8,1.7c-1.4,0.1 -2.8,-0.5 -3.9,-1.5l-22.3,-22.3l-60,72.4c-0.9,1.3 -2.4,2 -4,2z" class="st1"/>
  <path fill="#52b2e9" id="svg_8" d="m416.6,172.1c-2.9,0 -5.3,-2.4 -5.3,-5.3l0,-15.8l-15.8,0c-2.9,0 -5.3,-2.4 -5.3,-5.3c0,-2.9 2.4,-5.3 5.3,-5.3l21.1,0c2.9,0 5.3,2.4 5.3,5.3l0,21.1c-0.1,3 -2.4,5.3 -5.3,5.3z" class="st1"/>
  <path fill="#ffffff" id="svg_9" d="m240.628912,138.6l-73.8,0c-2.9,0 -5.3,-2.4 -5.3,-5.3s2.4,-5.3 5.3,-5.3l73.8,0c2.9,0 5.3,2.4 5.3,5.3s-2.3,5.3 -5.3,5.3z" class="st0"/>
  <path fill="#ffffff" id="svg_10" d="m272.328912,165l-137,0c-2.9,0 -5.3,-2.4 -5.3,-5.3c0,-2.9 2.4,-5.3 5.3,-5.3l137,0c2.9,0 5.3,2.4 5.3,5.3c-0.1,2.9 -2.4,5.3 -5.3,5.3z" class="st0"/>
 </g>
</svg>